<?xml version="1.0" encoding="UTF-8" standalone="no"?>
<!--
    DB-WEAVE application icon. Vectorised from
    resources/icons/dbweave-32.png by emitting one rect per
    horizontal run of same-colored pixels, so the SVG is a
    pixel-exact reproduction of the 32x32 source while still
    rendering crisply at arbitrary sizes.
-->
<svg xmlns="http://www.w3.org/2000/svg" viewBox="0 0 32 32" shape-rendering="crispEdges">
  <g fill="#000080">
    <rect x="0" y="1" width="2" height="1"/>
    <rect x="5" y="1" width="7" height="1"/>
    <rect x="15" y="1" width="7" height="1"/>
    <rect x="25" y="1" width="7" height="1"/>
    <rect x="0" y="2" width="2" height="1"/>
    <rect x="5" y="2" width="7" height="1"/>
    <rect x="15" y="2" width="7" height="1"/>
    <rect x="25" y="2" width="7" height="1"/>
    <rect x="0" y="3" width="2" height="1"/>
    <rect x="5" y="3" width="7" height="1"/>
    <rect x="15" y="3" width="7" height="1"/>
    <rect x="25" y="3" width="7" height="1"/>
    <rect x="0" y="6" width="7" height="1"/>
    <rect x="10" y="6" width="7" height="1"/>
    <rect x="20" y="6" width="7" height="1"/>
    <rect x="30" y="6" width="2" height="1"/>
    <rect x="0" y="7" width="7" height="1"/>
    <rect x="10" y="7" width="7" height="1"/>
    <rect x="20" y="7" width="7" height="1"/>
    <rect x="30" y="7" width="2" height="1"/>
    <rect x="0" y="8" width="7" height="1"/>
    <rect x="10" y="8" width="7" height="1"/>
    <rect x="20" y="8" width="7" height="1"/>
    <rect x="30" y="8" width="2" height="1"/>
    <rect x="0" y="11" width="2" height="1"/>
    <rect x="5" y="11" width="7" height="1"/>
    <rect x="15" y="11" width="7" height="1"/>
    <rect x="25" y="11" width="7" height="1"/>
    <rect x="0" y="12" width="2" height="1"/>
    <rect x="5" y="12" width="7" height="1"/>
    <rect x="15" y="12" width="7" height="1"/>
    <rect x="25" y="12" width="7" height="1"/>
    <rect x="0" y="13" width="2" height="1"/>
    <rect x="5" y="13" width="7" height="1"/>
    <rect x="15" y="13" width="7" height="1"/>
    <rect x="25" y="13" width="7" height="1"/>
    <rect x="0" y="16" width="7" height="1"/>
    <rect x="10" y="16" width="7" height="1"/>
    <rect x="20" y="16" width="7" height="1"/>
    <rect x="30" y="16" width="2" height="1"/>
    <rect x="0" y="17" width="7" height="1"/>
    <rect x="10" y="17" width="7" height="1"/>
    <rect x="20" y="17" width="7" height="1"/>
    <rect x="30" y="17" width="2" height="1"/>
    <rect x="0" y="18" width="7" height="1"/>
    <rect x="10" y="18" width="7" height="1"/>
    <rect x="20" y="18" width="7" height="1"/>
    <rect x="30" y="18" width="2" height="1"/>
    <rect x="0" y="21" width="2" height="1"/>
    <rect x="5" y="21" width="7" height="1"/>
    <rect x="15" y="21" width="7" height="1"/>
    <rect x="25" y="21" width="7" height="1"/>
    <rect x="0" y="22" width="2" height="1"/>
    <rect x="5" y="22" width="7" height="1"/>
    <rect x="15" y="22" width="7" height="1"/>
    <rect x="25" y="22" width="7" height="1"/>
    <rect x="0" y="23" width="2" height="1"/>
    <rect x="5" y="23" width="7" height="1"/>
    <rect x="15" y="23" width="7" height="1"/>
    <rect x="25" y="23" width="7" height="1"/>
    <rect x="0" y="26" width="7" height="1"/>
    <rect x="10" y="26" width="7" height="1"/>
    <rect x="20" y="26" width="7" height="1"/>
    <rect x="30" y="26" width="2" height="1"/>
    <rect x="0" y="27" width="7" height="1"/>
    <rect x="10" y="27" width="7" height="1"/>
    <rect x="20" y="27" width="7" height="1"/>
    <rect x="30" y="27" width="2" height="1"/>
    <rect x="0" y="28" width="7" height="1"/>
    <rect x="10" y="28" width="7" height="1"/>
    <rect x="20" y="28" width="7" height="1"/>
    <rect x="30" y="28" width="2" height="1"/>
  </g>
  <g fill="#008000">
    <rect x="2" y="0" width="3" height="1"/>
    <rect x="7" y="0" width="3" height="1"/>
    <rect x="12" y="0" width="3" height="1"/>
    <rect x="17" y="0" width="3" height="1"/>
    <rect x="22" y="0" width="3" height="1"/>
    <rect x="27" y="0" width="3" height="1"/>
    <rect x="2" y="1" width="3" height="1"/>
    <rect x="12" y="1" width="3" height="1"/>
    <rect x="22" y="1" width="3" height="1"/>
    <rect x="2" y="2" width="3" height="1"/>
    <rect x="12" y="2" width="3" height="1"/>
    <rect x="22" y="2" width="3" height="1"/>
    <rect x="2" y="3" width="3" height="1"/>
    <rect x="12" y="3" width="3" height="1"/>
    <rect x="22" y="3" width="3" height="1"/>
    <rect x="2" y="4" width="3" height="1"/>
    <rect x="7" y="4" width="3" height="1"/>
    <rect x="12" y="4" width="3" height="1"/>
    <rect x="17" y="4" width="3" height="1"/>
    <rect x="22" y="4" width="3" height="1"/>
    <rect x="27" y="4" width="3" height="1"/>
    <rect x="2" y="5" width="3" height="1"/>
    <rect x="7" y="5" width="3" height="1"/>
    <rect x="12" y="5" width="3" height="1"/>
    <rect x="17" y="5" width="3" height="1"/>
    <rect x="22" y="5" width="3" height="1"/>
    <rect x="27" y="5" width="3" height="1"/>
    <rect x="7" y="6" width="3" height="1"/>
    <rect x="17" y="6" width="3" height="1"/>
    <rect x="27" y="6" width="3" height="1"/>
    <rect x="7" y="7" width="3" height="1"/>
    <rect x="17" y="7" width="3" height="1"/>
    <rect x="27" y="7" width="3" height="1"/>
    <rect x="7" y="8" width="3" height="1"/>
    <rect x="17" y="8" width="3" height="1"/>
    <rect x="27" y="8" width="3" height="1"/>
    <rect x="2" y="9" width="3" height="1"/>
    <rect x="7" y="9" width="3" height="1"/>
    <rect x="12" y="9" width="3" height="1"/>
    <rect x="17" y="9" width="3" height="1"/>
    <rect x="22" y="9" width="3" height="1"/>
    <rect x="27" y="9" width="3" height="1"/>
    <rect x="2" y="10" width="3" height="1"/>
    <rect x="7" y="10" width="3" height="1"/>
    <rect x="12" y="10" width="3" height="1"/>
    <rect x="17" y="10" width="3" height="1"/>
    <rect x="22" y="10" width="3" height="1"/>
    <rect x="27" y="10" width="3" height="1"/>
    <rect x="2" y="11" width="3" height="1"/>
    <rect x="12" y="11" width="3" height="1"/>
    <rect x="22" y="11" width="3" height="1"/>
    <rect x="2" y="12" width="3" height="1"/>
    <rect x="12" y="12" width="3" height="1"/>
    <rect x="22" y="12" width="3" height="1"/>
    <rect x="2" y="13" width="3" height="1"/>
    <rect x="12" y="13" width="3" height="1"/>
    <rect x="22" y="13" width="3" height="1"/>
    <rect x="2" y="14" width="3" height="1"/>
    <rect x="7" y="14" width="3" height="1"/>
    <rect x="12" y="14" width="3" height="1"/>
    <rect x="17" y="14" width="3" height="1"/>
    <rect x="22" y="14" width="3" height="1"/>
    <rect x="27" y="14" width="3" height="1"/>
    <rect x="2" y="15" width="3" height="1"/>
    <rect x="7" y="15" width="3" height="1"/>
    <rect x="12" y="15" width="3" height="1"/>
    <rect x="17" y="15" width="3" height="1"/>
    <rect x="22" y="15" width="3" height="1"/>
    <rect x="27" y="15" width="3" height="1"/>
    <rect x="7" y="16" width="3" height="1"/>
    <rect x="17" y="16" width="3" height="1"/>
    <rect x="27" y="16" width="3" height="1"/>
    <rect x="7" y="17" width="3" height="1"/>
    <rect x="17" y="17" width="3" height="1"/>
    <rect x="27" y="17" width="3" height="1"/>
    <rect x="7" y="18" width="3" height="1"/>
    <rect x="17" y="18" width="3" height="1"/>
    <rect x="27" y="18" width="3" height="1"/>
    <rect x="2" y="19" width="3" height="1"/>
    <rect x="7" y="19" width="3" height="1"/>
    <rect x="12" y="19" width="3" height="1"/>
    <rect x="17" y="19" width="3" height="1"/>
    <rect x="22" y="19" width="3" height="1"/>
    <rect x="27" y="19" width="3" height="1"/>
    <rect x="2" y="20" width="3" height="1"/>
    <rect x="7" y="20" width="3" height="1"/>
    <rect x="12" y="20" width="3" height="1"/>
    <rect x="17" y="20" width="3" height="1"/>
    <rect x="22" y="20" width="3" height="1"/>
    <rect x="27" y="20" width="3" height="1"/>
    <rect x="2" y="21" width="3" height="1"/>
    <rect x="12" y="21" width="3" height="1"/>
    <rect x="22" y="21" width="3" height="1"/>
    <rect x="2" y="22" width="3" height="1"/>
    <rect x="12" y="22" width="3" height="1"/>
    <rect x="22" y="22" width="3" height="1"/>
    <rect x="2" y="23" width="3" height="1"/>
    <rect x="12" y="23" width="3" height="1"/>
    <rect x="22" y="23" width="3" height="1"/>
    <rect x="2" y="24" width="3" height="1"/>
    <rect x="7" y="24" width="3" height="1"/>
    <rect x="12" y="24" width="3" height="1"/>
    <rect x="17" y="24" width="3" height="1"/>
    <rect x="22" y="24" width="3" height="1"/>
    <rect x="27" y="24" width="3" height="1"/>
    <rect x="2" y="25" width="3" height="1"/>
    <rect x="7" y="25" width="3" height="1"/>
    <rect x="12" y="25" width="3" height="1"/>
    <rect x="17" y="25" width="3" height="1"/>
    <rect x="22" y="25" width="3" height="1"/>
    <rect x="27" y="25" width="3" height="1"/>
    <rect x="7" y="26" width="3" height="1"/>
    <rect x="17" y="26" width="3" height="1"/>
    <rect x="27" y="26" width="3" height="1"/>
    <rect x="7" y="27" width="3" height="1"/>
    <rect x="17" y="27" width="3" height="1"/>
    <rect x="27" y="27" width="3" height="1"/>
    <rect x="7" y="28" width="3" height="1"/>
    <rect x="17" y="28" width="3" height="1"/>
    <rect x="27" y="28" width="3" height="1"/>
    <rect x="2" y="29" width="3" height="1"/>
    <rect x="7" y="29" width="3" height="1"/>
    <rect x="12" y="29" width="3" height="1"/>
    <rect x="17" y="29" width="3" height="1"/>
    <rect x="22" y="29" width="3" height="1"/>
    <rect x="27" y="29" width="3" height="1"/>
    <rect x="2" y="30" width="3" height="1"/>
    <rect x="7" y="30" width="3" height="1"/>
    <rect x="12" y="30" width="3" height="1"/>
    <rect x="17" y="30" width="3" height="1"/>
    <rect x="22" y="30" width="3" height="1"/>
    <rect x="27" y="30" width="3" height="1"/>
    <rect x="2" y="31" width="3" height="1"/>
    <rect x="7" y="31" width="3" height="1"/>
    <rect x="12" y="31" width="3" height="1"/>
    <rect x="17" y="31" width="3" height="1"/>
    <rect x="22" y="31" width="3" height="1"/>
    <rect x="27" y="31" width="3" height="1"/>
  </g>
</svg>
